<?xml version="1.0" encoding="UTF-8"?>
<svg id="Layer_1" data-name="Layer 1" xmlns="http://www.w3.org/2000/svg" xmlns:xlink="http://www.w3.org/1999/xlink" viewBox="0 0 32 32">
  <defs>
    <style>
      .cls-1 {
        filter: url(#outer-glow-5);
        stroke-width: .4px;
      }

      .cls-1, .cls-2, .cls-3 {
        stroke: #29bee2;
      }

      .cls-1, .cls-2, .cls-3, .cls-4, .cls-5 {
        fill: none;
        stroke-linecap: round;
        stroke-miterlimit: 10;
      }

      .cls-2 {
        filter: url(#outer-glow-4);
      }

      .cls-2, .cls-3 {
        stroke-width: .49px;
      }

      .cls-3 {
        filter: url(#outer-glow-3);
      }

      .cls-6 {
        fill: #231f20;
      }

      .cls-4 {
        filter: url(#outer-glow-2);
      }

      .cls-4, .cls-5 {
        stroke: #00b3bc;
        stroke-width: .83px;
      }

      .cls-5 {
        filter: url(#outer-glow-1);
      }
    </style>
    <filter id="outer-glow-1" filterUnits="userSpaceOnUse">
      <feOffset dx="0" dy="0"/>
      <feGaussianBlur result="blur" stdDeviation=".22"/>
      <feFlood flood-color="#1aabba" flood-opacity="1"/>
      <feComposite in2="blur" operator="in"/>
      <feComposite in="SourceGraphic"/>
    </filter>
    <filter id="outer-glow-2" filterUnits="userSpaceOnUse">
      <feOffset dx="0" dy="0"/>
      <feGaussianBlur result="blur-2" stdDeviation=".22"/>
      <feFlood flood-color="#1aabba" flood-opacity="1"/>
      <feComposite in2="blur-2" operator="in"/>
      <feComposite in="SourceGraphic"/>
    </filter>
    <filter id="outer-glow-3" filterUnits="userSpaceOnUse">
      <feOffset dx="0" dy="0"/>
      <feGaussianBlur result="blur-3" stdDeviation=".22"/>
      <feFlood flood-color="#29abe2" flood-opacity="1"/>
      <feComposite in2="blur-3" operator="in"/>
      <feComposite in="SourceGraphic"/>
    </filter>
    <filter id="outer-glow-4" filterUnits="userSpaceOnUse">
      <feOffset dx="0" dy="0"/>
      <feGaussianBlur result="blur-4" stdDeviation=".22"/>
      <feFlood flood-color="#29abe2" flood-opacity="1"/>
      <feComposite in2="blur-4" operator="in"/>
      <feComposite in="SourceGraphic"/>
    </filter>
    <filter id="outer-glow-5" filterUnits="userSpaceOnUse">
      <feOffset dx="0" dy="0"/>
      <feGaussianBlur result="blur-5" stdDeviation=".22"/>
      <feFlood flood-color="#29abe2" flood-opacity="1"/>
      <feComposite in2="blur-5" operator="in"/>
      <feComposite in="SourceGraphic"/>
    </filter>
  </defs>
  <circle class="cls-6" cx="16" cy="16" r="16"/>
  <g>
    <path class="cls-5" d="m11.29,18.08h-2.89c-.57,0-1.04-.46-1.04-1.04v-4.54c0-.51.38-.94.88-1.01l10.11-1.43c.49-.07.92.31.92.8v2.03"/>
    <path class="cls-4" d="m13.57,13.46l10.3,1.19c.44.05.77.42.77.87v4.87c0,.4-.31.73-.71.77l-9.86.79c-.84.07-1.56-.6-1.56-1.44v-6.11c0-.56.49-1,1.05-.94Z"/>
    <path class="cls-3" d="m19.93,16.67l1.3,1.15c.06.05.06.15,0,.21l-1.31,1.2"/>
    <path class="cls-2" d="m17.91,16.67l-1.3,1.15c-.06.05-.06.15,0,.21l1.31,1.2"/>
    <line class="cls-1" x1="18.45" y1="19.68" x2="19.38" y2="16.18"/>
  </g>
</svg>