<svg width="230" height="230" viewBox="0 0 230 230" fill="none" xmlns="http://www.w3.org/2000/svg">
<circle cx="115" cy="115" r="115" fill="#F2F2F2"/>
<path d="M54 135.609L58.9155 134.327C59.9087 134.069 60.9388 134.605 61.2844 135.569C61.7139 136.76 62.4185 137.787 63.4016 138.651C64.8343 139.909 66.5992 140.538 68.6963 140.538C74.5983 140.538 77.551 137.423 77.551 131.195V127.932C76.8229 129.254 75.6687 130.342 74.0849 131.195C72.5012 132.048 70.6424 132.473 68.5017 132.473C64.3075 132.473 60.8549 131.044 58.1405 128.186C55.4227 125.325 54.0638 121.701 54.0638 117.307C54.0638 112.913 55.4126 109.5 58.1069 106.559C60.8012 103.614 64.2673 102.145 68.5017 102.145C73.0783 102.145 76.1585 103.661 77.7422 106.689V102.72H84.9293V130.941C84.9293 135.549 83.6241 139.377 81.017 142.425C78.4066 145.474 74.3668 147 68.8909 147C64.8712 147 61.4891 145.912 58.7545 143.737C56.0165 141.562 54.4328 138.851 54.0067 135.609H54ZM69.7197 126.138C72.1154 126.138 74.0514 125.339 75.5277 123.739C77.0041 122.14 77.7422 119.994 77.7422 117.307C77.7422 114.62 76.994 112.539 75.4975 110.939C74.0011 109.339 72.0751 108.54 69.723 108.54C67.3709 108.54 65.3712 109.339 63.8512 110.939C62.3313 112.539 61.573 114.66 61.573 117.307C61.573 119.954 62.3212 122.14 63.8177 123.739C65.3141 125.339 67.2837 126.138 69.7197 126.138Z" fill="#3333CC"/>
<path d="M85.9997 125.432C85.9997 122.789 86.8654 120.664 88.5967 119.064C90.328 117.465 92.6063 116.451 95.4281 116.026L103.447 114.811C104.987 114.597 105.756 113.85 105.756 112.572C105.756 111.163 105.263 110.022 104.279 109.149C103.296 108.275 101.82 107.837 99.8538 107.837C97.8876 107.837 96.475 108.359 95.361 109.406C94.2471 110.45 93.6062 111.806 93.4351 113.469L86.6338 111.933C86.9325 109.119 88.2813 106.719 90.677 104.735C93.0727 102.75 96.1093 101.76 99.7867 101.76C104.32 101.76 107.668 102.847 109.829 105.023C111.99 107.198 113.07 109.992 113.07 113.405V128.893C113.07 130.941 113.198 132.604 113.456 133.885H106.528C106.313 133.246 106.205 131.924 106.205 129.917C104.152 133.203 100.944 134.842 96.5824 134.842C93.4149 134.842 90.8615 133.916 88.9155 132.058C86.9694 130.201 85.9963 127.996 85.9963 125.436L85.9997 125.432ZM97.9983 129.016C100.307 129.016 102.179 128.387 103.612 127.129C105.044 125.871 105.763 123.813 105.763 120.955V119.546L97.6124 120.761C94.8309 121.229 93.4418 122.638 93.4418 124.984C93.4418 126.095 93.8478 127.042 94.6598 127.832C95.4717 128.622 96.5857 129.016 97.9949 129.016H97.9983Z" fill="#3333CC"/>
<path d="M114.553 125.432C114.553 122.789 115.419 120.664 117.15 119.064C118.882 117.465 121.16 116.451 123.982 116.026L132.001 114.811C133.541 114.597 134.31 113.85 134.31 112.572C134.31 111.163 133.816 110.022 132.833 109.149C131.85 108.275 130.374 107.837 128.408 107.837C126.441 107.837 125.029 108.359 123.915 109.406C122.801 110.45 122.16 111.806 121.989 113.469L115.188 111.933C115.486 109.119 116.835 106.719 119.231 104.735C121.626 102.75 124.663 101.76 128.34 101.76C132.873 101.76 136.222 102.847 138.383 105.023C140.544 107.198 141.624 109.992 141.624 113.405V128.893C141.624 130.941 141.752 132.604 142.01 133.885H135.081C134.867 133.246 134.759 131.924 134.759 129.917C132.706 133.203 129.498 134.842 125.136 134.842C121.969 134.842 119.415 133.916 117.469 132.058C115.523 130.201 114.55 127.996 114.55 125.436L114.553 125.432ZM126.552 129.016C128.861 129.016 130.733 128.387 132.166 127.129C133.598 125.871 134.316 123.813 134.316 120.955V119.546L126.166 120.761C123.385 121.229 121.996 122.638 121.996 124.984C121.996 126.095 122.402 127.042 123.214 127.832C124.026 128.622 125.139 129.016 126.549 129.016H126.552Z" fill="#3333CC"/>
<path d="M161.82 102.335V109.443C161.82 109.688 161.622 109.885 161.377 109.885H159.381C153.777 109.885 150.975 112.934 150.975 119.034V133.879H143.533V102.717H150.784V107.71C151.512 106.047 152.687 104.735 154.314 103.774C155.938 102.814 157.78 102.335 159.83 102.335H161.82Z" fill="#3333CC"/>
<path d="M169.94 133.879H162.561V102.332H169.94V133.879Z" fill="#3333CC"/>
<path d="M166.252 98.4703C168.874 98.4703 171 96.3503 171 93.7352C171 91.12 168.874 89 166.252 89C163.63 89 161.504 91.12 161.504 93.7352C161.504 96.3503 163.63 98.4703 166.252 98.4703Z" fill="#9999FF"/>
</svg>
