<svg width="166" height="166" viewBox="0 0 166 166" fill="none" xmlns="http://www.w3.org/2000/svg">
<circle cx="83" cy="83" r="83" fill="url(#paint0_linear_1612_1037)"/>
<path d="M72.0666 85.3237L81.562 101.387C81.562 101.387 84.6046 107.645 90.9242 108.482H110.584C110.584 108.482 119.545 108.482 123.691 100.852C123.691 100.852 129.442 92.8539 123.691 83.7843C123.691 83.7843 120.259 76.0873 109.247 75.6861C109.247 75.6861 107.508 60.8281 89.4531 55.607C89.4531 55.607 72.2004 51.3238 62.0357 65.5126C62.0357 65.5126 58.0232 69.9298 57.8893 75.5521V104.822C57.8893 104.822 53.4425 105.369 50.8904 103.394C50.8904 103.394 47.0566 101.251 46.6999 95.2727V79.211C46.6999 79.211 40.0129 82.1558 40.0129 92.6864C40.0129 92.6864 39.3663 100.216 47.2347 105.805C47.2347 105.805 50.8342 108.281 55.6157 108.482H74.6072L61.3229 85.1897L75.1427 60.9165C75.1427 60.9165 76.1239 58.864 79.6009 58.5967L87.5141 58.5525L72.0666 85.3237Z" fill="url(#paint1_linear_1612_1037)" fill-opacity="0.3"/>
<defs>
<linearGradient id="paint0_linear_1612_1037" x1="83" y1="0" x2="83" y2="166" gradientUnits="userSpaceOnUse">
<stop stop-color="#D8F5E9"/>
<stop offset="1" stop-color="#869E94" stop-opacity="0.82"/>
</linearGradient>
<linearGradient id="paint1_linear_1612_1037" x1="40" y1="102.451" x2="117.224" y2="74.5387" gradientUnits="userSpaceOnUse">
<stop stop-color="#0C292F"/>
<stop offset="0.627937" stop-color="#064C59"/>
</linearGradient>
</defs>
</svg>
