<svg width="178" height="178" viewBox="0 0 178 178" fill="none" xmlns="http://www.w3.org/2000/svg">
<rect width="178" height="178" rx="89" fill="url(#paint0_linear_1617_1026)"/>
<path d="M78.0666 92.3237L87.562 108.387C87.562 108.387 90.6046 114.645 96.9242 115.482H116.584C116.584 115.482 125.545 115.482 129.691 107.852C129.691 107.852 135.442 99.8539 129.691 90.7843C129.691 90.7843 126.259 83.0873 115.247 82.6861C115.247 82.6861 113.508 67.8281 95.4531 62.607C95.4531 62.607 78.2004 58.3238 68.0357 72.5126C68.0357 72.5126 64.0232 76.9298 63.8893 82.5521V111.822C63.8893 111.822 59.4425 112.369 56.8904 110.394C56.8904 110.394 53.0566 108.251 52.6999 102.273V86.211C52.6999 86.211 46.0129 89.1558 46.0129 99.6864C46.0129 99.6864 45.3663 107.216 53.2347 112.805C53.2347 112.805 56.8342 115.281 61.6157 115.482H80.6072L67.3229 92.1897L81.1427 67.9165C81.1427 67.9165 82.1239 65.864 85.6009 65.5967L93.5141 65.5525L78.0666 92.3237Z" fill="#064C59"/>
<defs>
<linearGradient id="paint0_linear_1617_1026" x1="89" y1="0" x2="89" y2="178" gradientUnits="userSpaceOnUse">
<stop stop-color="#D8F5E9"/>
<stop offset="1" stop-color="#869E94" stop-opacity="0.82"/>
</linearGradient>
</defs>
</svg>
