<?xml version="1.0" encoding="UTF-8"?>
<svg id="Layer_1" data-name="Layer 1" xmlns="http://www.w3.org/2000/svg" viewBox="0 0 32 32">
  <defs>
    <style>
      .cls-1 {
        fill: #c49a6c;
      }
    </style>
  </defs>
  <circle class="cls-1" cx="16" cy="16" r="16"/>
  <g>
    <polygon points="8.04 12.79 9.06 11.77 15.29 11.77 9.85 19.36 24.42 19.36 23.35 20.49 7.58 20.49 13.11 12.84 8.04 12.79"/>
    <path d="m18.92,11.51c-2.53,0-4.59,2.01-4.59,4.5s2.05,4.49,4.59,4.49,4.6-2.01,4.6-4.49-2.06-4.5-4.6-4.5Zm0,7.84c-1.89,0-3.42-1.5-3.42-3.34s1.53-3.34,3.42-3.34,3.42,1.5,3.42,3.34-1.53,3.34-3.42,3.34Z"/>
  </g>
</svg>