<?xml version="1.0" encoding="UTF-8"?>
<svg id="Layer_1" data-name="Layer 1" xmlns="http://www.w3.org/2000/svg" viewBox="0 0 1573.36 573.69">
  <defs>
    <style>
      .cls-1 {
        fill: #fff;
      }
    </style>
  </defs>
  <path class="cls-1" d="m13.91,569.95c36.46-67.9,76.53-133.76,116.98-199.34,39.87-64.63,80.16-129.04,119.36-194.07,21.89-36.31,42.82-73.26,60.64-111.76,3.99-8.61-8.33-16.21-12.95-7.57-13.98,26.17-26.37,53.11-38.82,80.03-12.43,26.89-24.93,53.74-37.14,80.73-24.08,53.22-47.8,106.99-65.35,162.78-4.79,15.21-8.83,30.63-13.03,46.01-2.1,7.71-5.86,14.83-6.54,22.89-.64,7.52,1.36,14.69,4.82,21.33,1.96,3.75,6.78,4.44,10.26,2.69,7.25-3.65,13.84-8.67,18.98-14.98,5.83-7.17,11.53-14.46,17.36-21.66,12.35-15.25,23.5-31.34,35.32-46.98,24.34-32.21,48.68-64.43,73.19-96.51,48.9-63.98,98.72-127.25,149.96-189.37,14.34-17.39,28.78-34.69,43.33-51.91,3.58-4.24,7.17-8.48,10.75-12.73,3.39-4.02,8.06-8.17,10.66-12.75,1.96-3.44,2.13-7.61,4.6-10.87,1.21-1.59.79-1.33,2.09-.67l-2.69-10.26c-38.3,68.73-81.21,134.77-120.45,202.96-38.87,67.53-74.67,137.11-106.6,208.19-8.93,19.87-17.41,39.92-25.49,60.15l-6.08,15.23c-.93,2.34-1.67,4.94-2.86,7.17-1.29,2.41-3,4.46-4.17,6.98-4.39,9.48-3.85,18.99.58,28.31,1.35,2.84,5.53,4.42,8.47,3.45,16.96-5.6,30.93-15.98,44.91-26.75,15.44-11.91,30.79-23.95,45.62-36.6,14.44-12.32,28.41-25.23,41.39-39.09,5.55-5.93,10.77-12.12,16.11-18.23,4.91-5.62,10.02-11.25,13.9-17.66-4.32-2.52-8.63-5.05-12.95-7.57-5.57,9.41-10.05,19.6-13.98,29.78-4.53,11.71-8.96,24.99-8.06,37.73s9.43,22.81,23.23,22.95c18.78.19,33.87-16.02,45.05-29.24,6.93-8.19,13.49-16.69,19.52-25.55,7.34-10.78,14.31-21.83,23.75-30.95l-11.78-1.52c4.97,8.16,3.07,18.77,5.37,27.77,2.6,10.16,9.67,17.76,15.88,25.84,6.46,8.41,9.58,17.32,2.3,26.4-3.23,4.03-7.27,7.69-11.41,10.75-2.27,1.68-4.77,2.98-7.08,4.59-.59.41-2.34,1.43-2.6,2.14-.59,1.62.05-.3.81.7v7.57c9.4-21.57,29.76-34.99,48.83-47.32,9.96-6.44,20.24-12.75,31.28-17.18.58-.21,1.17-.37,1.78-.5l-.96-.02c-1.8-4.75-2.67-5.87-2.61-3.35l-.11,1.06c-.82,3.32-.58,7.25-.9,10.66-.72,7.52-1.93,14.9-4.11,22.14l13.71-1.79c-2.04-3.29-1.11-8.37-.9-12.04.26-4.37.08-8.26,2.65-12.02,2.11-3.09,5.89-6.48,9.88-6.4,4.82.09,9.72,4.12,13.66,6.49,22.77,13.66,47.99,5.06,72.58,3.77,9.6-.5,9.66-15.51,0-15-15.08.79-30,4.77-45.16,4.08-6.88-.31-13.28-1.92-19.22-5.43-5.33-3.14-10.69-6.91-16.84-8.24-13.29-2.88-25.91,6.5-30.58,18.64-2.02,5.24-1.88,11.21-2.11,16.77s-.03,11.93,3.09,16.96c3.43,5.52,11.83,4.45,13.71-1.79,2.65-8.82,3.89-17.92,4.73-27.07.61-6.68,3.11-15.71-3.65-20.17-6.04-3.98-12.74-1.48-18.63,1.3-6.65,3.13-13.18,6.48-19.48,10.28-24.11,14.55-51.89,31.77-63.59,58.61-1.01,2.31-1.69,5.31,0,7.57,4.15,5.54,9.74,8.8,16.69,6.15,3.15-1.2,5.73-3.53,8.53-5.36s5.67-3.88,8.36-6.04c11.16-8.95,21.1-21.37,18.75-36.54-2.2-14.2-14.33-22.65-20.69-34.72s-2.03-25.39-9-36.83c-2.54-4.17-8.26-4.91-11.78-1.52-14.42,13.93-23.63,32.02-36.02,47.59-9.33,11.72-20.15,26.93-34.66,32.48-2.74,1.05-5.43,1.39-8.34,1.22-1.4-.08-3.28-.62-4.16-1.28-.53-.4-1.14-.7-1.8-2.38,0,0-.95-3.99-.96-4.24-.64-10.66,2.93-21.5,6.83-31.91,3.58-9.55,7.89-19.11,13.17-28.03,4.93-8.33-7.95-15.82-12.95-7.57-3.44,5.68-8.02,10.55-12.36,15.54-5.46,6.27-10.82,12.58-16.53,18.62-12.2,12.91-25.25,24.99-38.72,36.55-13.84,11.88-28.14,23.21-42.57,34.37-13.27,10.26-26.64,21.03-42.77,26.36l8.47,3.45c-1.42-2.99-2.15-6.25-1.6-9.56.79-4.76,4.03-8.17,5.98-12.38,4.03-8.71,7.18-17.96,10.74-26.87,7.01-17.53,14.41-34.9,22.12-52.13,15.43-34.45,32.02-68.36,49.12-102,34.63-68.14,72.97-134.05,112.63-199.36,22.43-36.94,45.05-73.78,66.09-111.54,1.89-3.38.99-8.39-2.69-10.26-5.74-2.92-11.93-3.42-17.37.48-2.66,1.9-4.71,4.52-6.29,7.36-1.96,3.51-2.74,7.99-4.9,10.56-13.22,15.77-26.58,31.42-39.77,47.23-26.57,31.85-52.81,63.98-78.7,96.38-51.79,64.8-102.03,130.8-152.04,196.97-13.74,18.18-26.89,36.82-40.83,54.84-6.91,8.93-14.45,17.33-21.45,26.17-2.78,3.51-4.98,7.2-8.24,10.35-3.49,3.37-7.46,5.91-11.78,8.09l10.26,2.69c-2.78-5.32-3.65-10.91-2.14-16.75.79-3.04,2.29-5.59,3.35-8.51,1.29-3.56,2.03-7.43,3.02-11.09,3.69-13.54,7.27-27.1,11.45-40.5,8.36-26.8,18.25-53.1,28.85-79.09,21.58-52.86,45.83-104.59,69.79-156.39,13.42-29,26.65-58.11,41.72-86.31-4.32-2.52-8.63-5.05-12.95-7.57-31.49,68.01-72.56,130.86-111.65,194.62-40.2,65.55-81.03,130.74-120.47,196.76-22.39,37.48-44.2,75.32-64.86,113.79-4.57,8.5,8.38,16.09,12.95,7.57h0Z"/>
  <path class="cls-1" d="m740.16,520.08c36.94-59.96,77.03-117.9,118.44-174.84,41.52-57.09,83.72-113.77,128.06-168.71,25.08-31.08,50.8-61.65,77.11-91.71l-11.78-9.09c-34.15,48.24-61.69,100.68-87.61,153.68-27.04,55.3-53.87,110.83-78.25,167.36-6.76,15.67-14.12,30.99-19.64,47.17-1.41,4.14-2.74,8.3-3.97,12.5.12-.39-1.22,4.79-.72,3.53-.75,1.92-2.58,3.66-3.45,5.65-3.22,7.42-1.37,14.27,3.66,20.29,2.51,3,8.08,2.82,10.61,0,22.49-25.05,42.5-52.14,63.15-78.69s43.21-54.58,65.36-81.43c44.41-53.8,89.83-106.82,135.76-159.33,22.19-25.37,42.73-54.08,69.59-74.81l-10.26-10.26c-10.55,21.08-24.53,40.06-37.8,59.45-14.02,20.48-27.87,41.08-41.58,61.77-27.53,41.52-54.46,83.48-79.46,126.58-24.29,41.86-47.59,84.82-65.95,129.64-4.45,10.87-9.01,21.54-12.33,32.83-1.56,5.32-3.4,10.8-3.57,16.36-.16,5.22-1.71,14.1,2.14,18.18,2.01,2.13,5.44,3.88,7.92,5.34s4.28,2.05,7.15,1.92c5.79-.26,11.81-1.7,17.24-3.63s10.05-4.7,15.16-6.88c5.37-2.3,10.58-4.93,15.58-7.97,44.6-27.2,86.1-60.14,123.24-96.83l-10.61-10.61c-11.58,13.68-22.35,27.68-31.77,42.94-5.54,8.98-15.39,21.62-6.34,31.59,2.09,2.3,6.46,2.97,9.09,1.17,6.4-4.37,10.87-10.01,15.06-16.45,3.94-6.07,8.07-11.61,8.75-19.04.83-8.95-12.01-9.4-14.73-1.99s-4.86,15.83-.53,22.69c2.25,3.56,6.38,6.14,10.59,6.53,5.18.48,11.72-3.4,16.1-5.99,10.28-6.06,18.3-15.5,26.39-24.1,8.62-9.15,16.68-18.77,24.77-28.39,32.07-38.18,60.77-79.01,84.78-122.74,6.92-12.6,13.27-25.52,19.03-38.69.95-2.16,2.1-5.28,2.96-6.78,1.75-3.06,3.99-5.45,5.22-8.85,2.21-6.16,1.21-12.25-1.62-17.99-2.13-4.31-8.62-4.82-11.78-1.52-20.28,21.21-35.5,46.49-49.07,72.34-14.52,27.67-28.63,55.72-41.12,84.36-6.38,14.62-12.08,29.47-17.54,44.46s-10.26,29.39-11.86,44.94c-.35,3.45-.51,6.91-.4,10.37s-.12,6.86.05,10.26c.33,6.55,4.46,10.24,10.08,12.7-2.27-1,1.15.9,1.89,1.3,1.67.9,3.52,1.42,5.4,1.64,3.81.43,6.92-.72,10.31-2.31,6.67-3.14,13.54-5.48,19.92-9.31,30.08-18.08,53.16-45.66,79.98-67.87-4.18-2.43-8.36-4.86-12.54-7.3-1.56,5.14-5.02,9.43-7.35,14.22-2.58,5.3-4.8,10.92-6.18,16.66-2.1,8.73-3.64,20.5,2.7,27.94,9.69,11.37,27.06,3.1,37.23-3.14,17.12-10.5,33.07-25.57,44.05-42.36,13.2-20.18,22.91-43.16,31.97-65.42,5.06-12.43,9.73-25.02,14.33-37.63s9.33-24.01,17.77-33.82l-5.3,2.2c2.86-.04,2.42.2,3.43,2.81,1.63,4.23,4.25,7.78,5.52,12.22,2.55,8.89,1.84,18.99,1.58,28.15-.56,19.86-3.61,40.04-8.9,59.2-9.64,34.94-27.67,66.06-51.78,92.94-6.35,7.08-13.1,14.03-20.75,19.72-3.79,2.82-7.81,5.36-12.02,7.49-3.88,1.96-7.6,5.92-11.57,2.62l2.2,5.3c-1.22-9.35-2.56-17.09,1.38-25.95,3.61-8.11,9.05-15.42,14.82-22.11,11.83-13.73,25.42-26.09,40.69-35.9,12.88-8.28,26.81-15.37,41.88-18.52,6.34-1.33,12.89-2.16,19.38-1.73,2.94.2,11.19,1.35,10.77,4.75-.25,2.05-4.7,4.03-6.22,4.82-4.12,2.13-8.68,3.21-13.31,3.33-8.18.2-17.01-2.4-23.29-7.81-2.19-1.89-3.67-3.55-2.36-6.36s4.67-4.61,7.48-5.72c7.9-3.13,17.41-4.15,25.82-3.79,10.69.46,21.1,3.21,31.63,4.86,9.95,1.56,19.72,2.08,29.74.83,18.48-2.32,34.43-10.7,46.67-24.84,27.11-31.31,27.51-74.41,26.75-113.59-.19-9.64-15.19-9.67-15,0,.73,37.23,1.42,80.72-27.64,108.55-14.71,14.09-35.09,17.58-54.76,14.86-11.33-1.57-22.42-4.49-33.84-5.44-10.2-.85-21,.32-30.82,3.26-8.91,2.67-17.37,7.95-20.6,17.1-3.52,9.96,2.63,18.61,10.51,24.16,16.49,11.61,41.34,12.42,57.19-.83,7.9-6.61,9.41-17.45,2.1-25.23-5.09-5.42-12.55-7.25-19.7-7.84-13.86-1.14-28.7,2.18-41.47,7.45-20.35,8.4-38.87,20.49-55.07,35.38-14.04,12.91-28.23,28.05-35.61,45.89-1.77,4.28-2.99,8.61-3.49,13.23-.59,5.45.57,10.87,1.28,16.28,1.65,12.53,17.31,14.34,26.44,8.95,9.33-5.51,18.36-10.46,26.62-17.71,7.67-6.73,14.53-14.34,21.11-22.12,28.55-33.75,47.3-73.65,54.69-117.28,2.03-12,3.57-24.13,4.02-36.31.42-11.35,1.1-23.82-2.27-34.8-1.39-4.52-3.67-8.5-5.61-12.76-2.1-4.6-3.69-8.27-8.47-10.71-4.26-2.17-10.63-3.04-14.42.38-4.09,3.68-7.36,9.31-10.07,14.03-5.51,9.57-9.27,20.07-13.01,30.42-4.08,11.28-8.35,22.5-12.88,33.61-8.68,21.3-18.17,43.33-30.93,62.55-6.46,9.74-14.83,17.84-23.69,25.38-5.58,4.75-11.34,9.22-17.76,12.78-4.66,2.58-10.16,5.32-14.91,4.73.69.09-.38-.54.09-.03-.6-.65-.43-.39-.63-1.3-1.08-4.84-.02-10.18,1.26-14.89,2.86-10.53,9.97-18.86,13.09-29.17,2.34-7.73-7.15-11.76-12.54-7.3-22.06,18.28-41.4,39.65-64.33,56.9-4.97,3.74-10.1,7.29-15.54,10.32-2.88,1.6-5.83,3.09-8.91,4.27-1.06.41-2.14.74-3.21,1.12-1.18.3-2.32.72-3.42,1.26-.74.62-1.56,1.09-2.47,1.41-.21-.02-3.1-2.07-2.05-1.49-.78-.43-3.06-1.93-2.4-.73.75,1.34-.1,1.02.33-.3.28-.85.42-1.67.45-2.6.22-6.92-.64-13.48.49-20.44,2.3-14.08,7.37-27.58,12.25-40.92,4.97-13.6,10.22-27.07,16.08-40.32,11.33-25.61,23.98-50.67,36.82-75.55,13.71-26.56,28.7-52.86,49.48-74.6l-11.78-1.52c1.58,3.2.57,5.97-1.39,8.79-2.88,4.11-4.62,8.51-6.68,13.12-4.08,9.13-8.44,18.13-13.08,26.99-8.96,17.12-18.83,33.84-29.25,50.11-20.8,32.48-44.48,62.98-69.68,92.15-7.47,8.65-15.47,16.7-23.32,24.98-6.48,6.84-13.25,12.14-22.28,15.21h3.99c-1.2-.28-.99-.33-1.02-.2-.03.12.04-2.23.12-2.79.38-2.58,1.41-5.2,2.31-7.64l-14.73-1.99c-.36,3.88-4.64,8.28-6.71,11.47-2.7,4.18-5.51,8.22-9.67,11.07l9.09,1.17c1.79,1.97,0,1.67.72.74.13-.17.5-1.42.7-1.93.75-1.92,1.89-3.73,2.95-5.48,2.44-4.02,4.99-7.99,7.48-11.98,7.7-12.33,16.88-23.58,26.25-34.65,6.16-7.27-3.63-17.49-10.61-10.61-23.95,23.65-49.58,45.61-76.85,65.34-13.4,9.69-27.22,18.84-41.13,27.76-6.93,4.44-14.41,7.44-21.66,11.19s-14.63,6.11-22.73,6.78l3.79,1.02-8-5.21,3.71,6.48c.02-3.68-.03-7.36.05-11.04.09-4.29,1.36-8.33,2.53-12.44,2.11-7.4,4.59-14.69,7.44-21.83,5.79-14.54,11.79-29.1,18.79-43.11,14.46-28.95,29.29-57.68,45.34-85.8,32.92-57.67,69.37-113.29,106.47-168.34,10.11-14.99,20.28-29.93,30.58-44.8,9.95-14.37,19.68-28.92,27.52-44.58,2.98-5.95-3.77-15.27-10.26-10.26-24.07,18.57-42.68,42.63-62.42,65.49-22.73,26.31-45.64,52.45-68.23,78.87-45.56,53.29-90.77,106.87-134.07,162.01-23.78,30.28-46.42,61.56-72.17,90.23h10.61c-1.46-1.74-1.01-2.96.02-4.85.91-1.66,2.04-2.84,2.79-4.62.7-1.67,1.03-3.67,1.54-5.41,2.12-7.19,4.5-14.3,7.13-21.31,5.12-13.64,11.49-26.79,17.3-40.14,11.94-27.46,24.51-54.64,37.34-81.7,24.47-51.59,48.7-103.46,76.27-153.48,15.25-27.67,31.66-54.69,49.92-80.48,4.9-6.92-6.18-15.48-11.78-9.09-47.1,53.8-92.26,109.28-135.4,166.31-42.67,56.41-84.78,113.32-124.91,171.58-22.69,32.94-44.68,66.36-65.65,100.41-5.08,8.24,7.89,15.78,12.95,7.57h0Z"/>
  <path class="cls-1" d="m1324.26,351.72c7.85,0,15.36-6.9,15-15s-6.59-15-15-15c-7.85,0-15.36,6.9-15,15s6.59,15,15,15h0Z"/>
</svg>